<?xml version="1.0" standalone="no"?>
<!DOCTYPE svg PUBLIC "-//W3C//DTD SVG 20010904//EN"
 "http://www.w3.org/TR/2001/REC-SVG-20010904/DTD/svg10.dtd">
<svg version="1.0" xmlns="http://www.w3.org/2000/svg"
 width="500.000000pt" height="500.000000pt" viewBox="0 0 500.000000 500.000000"
 preserveAspectRatio="xMidYMid meet">

<g transform="translate(0.000000,500.000000) scale(0.100000,-0.100000)"
fill="#773040" stroke="none">
<path d="M1082 3363 c-206 -579 -228 -648 -211 -651 10 -2 19 -10 19 -18 0
-43 34 -156 48 -161 20 -8 70 48 109 123 22 43 33 54 53 54 24 0 31 16 145
337 66 186 121 331 123 322 2 -9 -6 -154 -18 -322 -24 -371 -25 -416 -4 -445
35 -50 84 -16 84 59 l0 50 47 -3 c46 -3 48 -4 56 -41 12 -49 40 -65 61 -35 9
12 16 39 16 59 0 23 88 284 228 678 l229 641 -138 0 -137 0 -10 -27 c-86 -249
-226 -633 -228 -630 -2 1 6 133 16 292 11 160 20 307 20 328 l0 37 -138 0
-139 0 -231 -647z"/>
<path d="M1913 3363 c-189 -531 -228 -649 -214 -651 9 -2 31 -26 50 -53 38
-55 81 -84 115 -75 14 4 30 26 49 65 25 56 30 60 64 63 l37 3 223 625 c123
344 226 635 229 648 l6 22 -164 0 -164 0 -231 -647z"/>
<path d="M2323 3363 c-144 -405 -226 -649 -219 -652 22 -7 36 -36 36 -76 0
-47 18 -79 41 -70 8 3 34 37 58 75 l44 69 70 3 70 3 90 253 c50 138 92 250 94
248 4 -4 -21 -364 -32 -458 l-6 -48 165 0 165 0 5 33 c3 17 16 179 30 358 l25
326 183 279 c101 153 188 285 192 292 6 9 -25 12 -142 12 l-150 0 -167 -252
c-92 -139 -163 -242 -159 -228 3 14 42 124 85 245 44 121 79 223 79 228 0 4
-73 7 -163 7 l-163 0 -231 -647z"/>
<path d="M3392 3983 c-16 -40 -452 -1264 -452 -1269 0 -2 48 -5 107 -6 l108
-3 -825 -224 c-453 -123 -860 -232 -905 -242 -400 -88 -689 -10 -777 210 -19
47 -22 75 -22 176 0 129 23 240 78 376 14 34 24 64 22 66 -2 2 -43 -39 -90
-91 -240 -260 -391 -492 -461 -706 -24 -73 -28 -102 -29 -205 -1 -102 3 -131
23 -188 37 -110 106 -201 262 -348 163 -154 227 -235 269 -339 55 -133 63
-150 86 -175 34 -37 75 -33 113 10 38 44 50 66 101 196 23 57 56 130 73 163
31 58 111 156 128 156 9 0 34 -82 44 -147 5 -29 15 -50 32 -63 32 -25 36 -25
68 3 23 19 29 39 50 161 14 76 30 146 37 155 36 48 82 55 116 18 14 -15 40
-81 67 -168 36 -119 49 -149 74 -171 38 -34 42 -34 80 -3 50 43 56 78 54 299
l-3 198 31 29 c63 59 117 52 154 -20 26 -52 52 -69 83 -52 28 15 49 51 86 148
l32 85 1298 566 c714 312 1294 567 1289 569 -4 1 -285 -73 -623 -166 -338 -92
-616 -164 -618 -160 -2 4 8 40 22 78 l26 71 -120 0 -119 0 35 98 c19 53 41
116 50 139 l15 42 111 3 110 3 38 106 c21 58 41 115 44 127 7 22 5 22 -98 22
-79 0 -106 3 -105 13 0 6 17 59 38 117 l38 105 122 3 c66 1 121 4 121 5 0 2
20 60 45 130 l45 127 -284 0 -284 0 -10 -27z"/>
</g>
</svg>
