<svg width="500" height="310" xmlns="http://www.w3.org/2000/svg" preserveAspectRatio="xMidYMid meet" version="1.0">

 <g>
  <title>Layer 1</title>
  <g id="svg_1" fill="#773040" transform="translate(0 500) scale(0.1 -0.1)">
   <path id="svg_6" d="m1132,4283c-206,-579 -228,-648 -211,-651c10,-2 19,-10 19,-18c0,-43 34,-156 48,-161c20,-8 70,48 109,123c22,43 33,54 53,54c24,0 31,16 145,337c66,186 121,331 123,322c2,-9 -6,-154 -18,-322c-24,-371 -25,-416 -4,-445c35,-50 84,-16 84,59l0,50l47,-3c46,-3 48,-4 56,-41c12,-49 40,-65 61,-35c9,12 16,39 16,59c0,23 88,284 228,678l229,641l-138,0l-137,0l-10,-27c-86,-249 -226,-633 -228,-630c-2,1 6,133 16,292c11,160 20,307 20,328l0,37l-138,0l-139,0l-231,-647z"/>
   <path id="svg_7" d="m1963,4283c-189,-531 -228,-649 -214,-651c9,-2 31,-26 50,-53c38,-55 81,-84 115,-75c14,4 30,26 49,65c25,56 30,60 64,63l37,3l223,625c123,344 226,635 229,648l6,22l-164,0l-164,0l-231,-647z"/>
   <path id="svg_8" d="m2373,4283c-144,-405 -226,-649 -219,-652c22,-7 36,-36 36,-76c0,-47 18,-79 41,-70c8,3 34,37 58,75l44,69l70,3l70,3l90,253c50,138 92,250 94,248c4,-4 -21,-364 -32,-458l-6,-48l165,0l165,0l5,33c3,17 16,179 30,358l25,326l183,279c101,153 188,285 192,292c6,9 -25,12 -142,12l-150,0l-167,-252c-92,-139 -163,-242 -159,-228c3,14 42,124 85,245c44,121 79,223 79,228c0,4 -73,7 -163,7l-163,0l-231,-647z"/>
   <path id="svg_9" d="m3442,4903c-16,-40 -452,-1264 -452,-1269c0,-2 48,-5 107,-6l108,-3l-825,-224c-453,-123 -860,-232 -905,-242c-400,-88 -689,-10 -777,210c-19,47 -22,75 -22,176c0,129 23,240 78,376c14,34 24,64 22,66c-2,2 -43,-39 -90,-91c-240,-260 -391,-492 -461,-706c-24,-73 -28,-102 -29,-205c-1,-102 3,-131 23,-188c37,-110 106,-201 262,-348c163,-154 227,-235 269,-339c55,-133 63,-150 86,-175c34,-37 75,-33 113,10c38,44 50,66 101,196c23,57 56,130 73,163c31,58 111,156 128,156c9,0 34,-82 44,-147c5,-29 15,-50 32,-63c32,-25 36,-25 68,3c23,19 29,39 50,161c14,76 30,146 37,155c36,48 82,55 116,18c14,-15 40,-81 67,-168c36,-119 49,-149 74,-171c38,-34 42,-34 80,-3c50,43 56,78 54,299l-3,198l31,29c63,59 117,52 154,-20c26,-52 52,-69 83,-52c28,15 49,51 86,148l32,85l1298,566c714,312 1294,567 1289,569c-4,1 -285,-73 -623,-166c-338,-92 -616,-164 -618,-160c-2,4 8,40 22,78l26,71l-120,0l-119,0l35,98c19,53 41,116 50,139l15,42l111,3l110,3l38,106c21,58 41,115 44,127c7,22 5,22 -98,22c-79,0 -106,3 -105,13c0,6 17,59 38,117l38,105l122,3c66,1 121,4 121,5c0,2 20,60 45,130l45,127l-284,0l-284,0l-10,-27z"/>
  </g>
 </g>
</svg>